# xmcd
#
# Track frame offsets:
#	150
#	14455
#	29967
#	46996
#	57830
#	75983
#	90553
#	111260
#	126855
#	139079
#	158233
#	174919
#
# Disc length: 2562 seconds
#
# Revision: 0
# Processed by: cddbd v1.4PL0 Copyright (c) Steve Scherf et al.
# Submitted via: EasyCDDAExtractor 4.5.0.2
#
DISCID=980a000c
DTITLE=Lee Benoit - Dis 'n' Dat
DYEAR=2000
DGENRE=Cajun
TTITLE0=Keep On Chooglin'
TTITLE1=Jolie Blonde
TTITLE2=Jambalaya
TTITLE3=Drunkard's Dream
TTITLE4=Chicky Town Back-Step
TTITLE5=Oh Darlin'
TTITLE6=Tickle Me Again
TTITLE7=Your Love Broke Through
TTITLE8=Boogie Shoe's
TTITLE9=Here Comes The Rain
TTITLE10=Born On The Bayou
TTITLE11=Give Him Cornbread
EXTD=
EXTT0=
EXTT1=
EXTT2=
EXTT3=
EXTT4=
EXTT5=
EXTT6=
EXTT7=
EXTT8=
EXTT9=
EXTT10=
EXTT11=
PLAYORDER=
